<svg width="24" height="24" viewBox="0 0 24 24" fill="none" xmlns="http://www.w3.org/2000/svg">
<path id="Vector" d="M21.5919 6.5263H20.8348V3.95991C20.8353 3.31637 20.6789 2.68241 20.3791 2.113C20.0792 1.54358 19.645 1.05591 19.114 0.692256C18.5831 0.328603 17.9715 0.0999495 17.3322 0.0261225C16.6929 -0.0477045 16.0452 0.0355232 15.4454 0.268589L7.0319 3.53646H3.95651C2.90714 3.53872 1.90145 3.95688 1.15983 4.6993C0.418202 5.44173 0.00112958 6.44787 0 7.49725V13.2417C0.000811004 14.0059 0.222482 14.7537 0.638333 15.3949C1.05418 16.0362 1.64649 16.5435 2.34397 16.856L4.88897 22.4165C5.01496 22.6932 5.19425 22.9424 5.4166 23.1498C5.63895 23.3572 5.9 23.5188 6.18482 23.6253C6.46964 23.7317 6.77264 23.781 7.07652 23.7703C7.3804 23.7596 7.67918 23.6891 7.9558 23.5628C8.51345 23.3058 8.94666 22.8385 9.16067 22.263C9.37469 21.6875 9.3521 21.0506 9.09784 20.4917L7.71627 17.4976L15.4454 20.4917C15.9016 20.6661 16.3856 20.7559 16.874 20.7569C17.9245 20.7569 18.9319 20.3396 19.6747 19.5968C20.4175 18.854 20.8348 17.8466 20.8348 16.7961V14.2297H21.5919C22.2305 14.2297 22.8431 13.976 23.2947 13.5244C23.7463 13.0728 24 12.4603 24 11.8216V8.93442C24 8.29575 23.7463 7.68323 23.2947 7.23162C22.8431 6.78001 22.2305 6.5263 21.5919 6.5263ZM1.71092 7.49725C1.71092 6.90128 1.94738 6.32967 2.36838 5.90786C2.78939 5.48605 3.36055 5.24851 3.95651 5.24738H6.33042V15.5129H3.95651C3.36055 15.5118 2.78939 15.2743 2.36838 14.8524C1.94738 14.4306 1.71092 13.859 1.71092 13.2631V7.49725ZM7.24577 21.9973C7.09978 22.0632 6.93377 22.0692 6.78341 22.014C6.63305 21.9588 6.51034 21.8469 6.44163 21.7022L4.38425 17.2025H5.72732L7.55373 21.1975C7.58643 21.2702 7.6044 21.3486 7.60661 21.4283C7.60881 21.5079 7.5952 21.5873 7.56656 21.6616C7.53792 21.736 7.49483 21.804 7.43976 21.8616C7.3847 21.9192 7.31877 21.9653 7.24577 21.9973ZM19.1239 16.7662C19.1218 17.1309 19.0313 17.4896 18.8602 17.8117C18.689 18.1337 18.4422 18.4094 18.1411 18.6151C17.8399 18.8207 17.4933 18.9503 17.1311 18.9926C16.7688 19.0348 16.4017 18.9886 16.0613 18.8578L8.04135 15.7567V4.98219L16.0613 1.87686C16.4021 1.74486 16.7698 1.69785 17.1328 1.73989C17.4958 1.78192 17.8431 1.91174 18.1446 2.11811C18.4462 2.32449 18.693 2.60121 18.8636 2.92435C19.0342 3.24749 19.1235 3.60733 19.1239 3.97274V16.7662ZM22.2891 11.8045C22.2891 11.9894 22.2156 12.1667 22.0849 12.2975C21.9541 12.4282 21.7768 12.5017 21.5919 12.5017H20.8348V8.22439H21.5919C21.7768 8.22439 21.9541 8.29784 22.0849 8.42859C22.2156 8.55935 22.2891 8.73668 22.2891 8.92159V11.8045Z" fill="#374557"/>
</svg>
