<svg width="16" height="16" viewBox="0 0 16 16" fill="none" xmlns="http://www.w3.org/2000/svg">
<path id="Vector" d="M10.9835 10.2203C11.8753 9.1395 12.4386 7.7533 12.4386 6.22614C12.4386 2.79589 9.64576 0 6.21929 0C2.79281 0 0 2.79589 0 6.22614C0 9.65639 2.79281 12.4523 6.21929 12.4523C7.72131 12.4523 9.12945 11.9119 10.209 10.9956L15.0436 15.8355C15.161 15.953 15.3018 16 15.4426 16C15.5834 16 15.7242 15.953 15.8416 15.8355C16.0528 15.6241 16.0528 15.2482 15.8416 15.0367L10.9835 10.2203ZM6.19582 11.3245C3.37954 11.3245 1.10304 9.04552 1.10304 6.22614C1.10304 3.40676 3.37954 1.12775 6.19582 1.12775C9.0121 1.12775 11.2886 3.40676 11.2886 6.22614C11.2886 9.04552 9.0121 11.3245 6.19582 11.3245Z" fill="#DADADA"/>
</svg>
