<svg width="80" height="80" viewBox="0 0 80 80" fill="none" xmlns="http://www.w3.org/2000/svg">
<path id="Vector" d="M33.3732 59.0759C33.3732 54.4332 34.8564 49.0168 37.2047 44.761C40.0475 39.6025 43.261 37.4102 45.7329 33.6703C49.9352 27.2222 50.6767 18.0658 48.0812 11.1019C45.3621 4.00893 39.0587 -0.246831 31.7665 0.0110933C24.4743 0.140056 18.4181 4.91166 16.0697 12.0046C13.3506 19.8713 14.5866 29.1566 20.5192 35.0889C22.9911 37.5391 25.3395 41.408 23.9799 45.019C22.8675 48.5009 18.7889 50.0485 15.9461 51.4671C9.39553 54.4332 1.60895 58.56 0.249391 66.5557C-1.11017 73.1328 3.21571 79.9678 10.1371 79.9678H38.4407C39.8003 79.9678 40.6654 78.2913 39.8003 77.1306C35.598 72.1011 33.3732 65.6529 33.3732 59.0759ZM74.1601 44.3741C66.2499 36.1206 53.6431 36.1206 45.8565 44.3741C38.0699 52.6277 38.0699 65.7819 45.8565 73.9065C53.6431 82.0312 66.3735 82.0312 74.1601 73.9065C81.9466 65.6529 81.9466 52.4988 74.1601 44.3741ZM50.4296 49.1458C54.879 44.5031 61.5532 43.7293 66.7443 47.0824L48.452 66.1688C45.3621 60.8813 45.9801 53.9174 50.4296 49.1458ZM69.4634 69.006C65.0139 73.5196 58.3397 74.1645 53.1487 71.3273L71.4409 52.2408C74.4073 57.3993 73.7893 64.3633 69.4634 69.006Z" fill="#CC9A06"/>
</svg>
