<svg width="24" height="24" viewBox="0 0 24 24" fill="none" xmlns="http://www.w3.org/2000/svg">
<g id="All in one icon">
<path id="Vector" d="M20.7832 3.21843C20.682 3.11768 20.5541 3.04793 20.4146 3.01737C20.2751 2.98681 20.1298 2.99672 19.9957 3.04593L3.49573 9.04593C3.35343 9.0999 3.23092 9.19589 3.14447 9.32114C3.05802 9.44639 3.01172 9.59498 3.01172 9.74718C3.01172 9.89937 3.05802 10.048 3.14447 10.1732C3.23092 10.2985 3.35343 10.3945 3.49573 10.4484L9.93823 13.0209L14.6932 8.25093L15.7507 9.30843L10.9732 14.0859L13.5532 20.5284C13.6088 20.668 13.705 20.7876 13.8294 20.8719C13.9537 20.9561 14.1005 21.0011 14.2507 21.0009C14.4023 20.9978 14.5494 20.9489 14.6725 20.8605C14.7957 20.7721 14.8892 20.6485 14.9407 20.5059L20.9407 4.00593C20.9918 3.87323 21.0042 3.72875 20.9763 3.58932C20.9484 3.44989 20.8814 3.32126 20.7832 3.21843Z" fill="white"/>
</g>
</svg>
