<svg width="17" height="16" viewBox="0 0 17 16" fill="none" xmlns="http://www.w3.org/2000/svg">
<g clip-path="url(#clip0_1252_8324)">
<path d="M2.15527 13.5H11.1553" stroke="white" stroke-linecap="round" stroke-linejoin="round"/>
<path d="M1.7132 8.77297L4.06917 10.9817C4.38306 11.276 4.7835 11.4612 5.21101 11.5098C5.63852 11.5584 6.07032 11.4679 6.44229 11.2516L15.9053 5.74989L14.7403 4.32606C14.4381 3.95668 14.0137 3.70755 13.5439 3.62367C13.0741 3.53978 12.5897 3.62668 12.1783 3.86867L9.40526 5.49989L5.65526 4.24989L4.62407 4.69183C4.54692 4.72489 4.47934 4.77685 4.42755 4.8429C4.37576 4.90895 4.34144 4.98698 4.32774 5.06979C4.31404 5.1526 4.3214 5.23752 4.34916 5.31674C4.37691 5.39595 4.42416 5.4669 4.48655 5.52305L6.40526 7.24989L4.65526 8.24989L2.90526 7.49989L1.85822 7.94863C1.78186 7.98135 1.71486 8.03259 1.66327 8.0977C1.61168 8.16281 1.57713 8.23976 1.56274 8.32157C1.54834 8.40339 1.55456 8.48751 1.58084 8.56632C1.60711 8.64513 1.6526 8.71615 1.7132 8.77297Z" stroke="white" stroke-linecap="round" stroke-linejoin="round"/>
</g>
<defs>
<clipPath id="clip0_1252_8324">
<rect width="16" height="16" fill="white" transform="translate(0.655273)"/>
</clipPath>
</defs>
</svg>
