<svg width="30" height="31" viewBox="0 0 30 31" fill="none" xmlns="http://www.w3.org/2000/svg">
<g id="All in one icon/arrow-left">
<path id="Union" fill-rule="evenodd" clip-rule="evenodd" d="M11.3008 23.7504C11.4883 23.9379 11.7258 24.0254 11.9633 24.0254C12.2008 24.0254 12.4508 23.9379 12.6258 23.7504C12.9883 23.3879 12.9883 22.7879 12.6258 22.4254L6.63813 16.4377H25.624C26.1365 16.4377 26.5615 16.0127 26.5615 15.5002C26.5615 14.9877 26.1365 14.5627 25.624 14.5627H6.63843L12.6258 8.57539C12.9883 8.21289 12.9883 7.61289 12.6258 7.25039C12.2633 6.88789 11.6633 6.88789 11.3008 7.25039L3.71328 14.8379C3.35078 15.2004 3.35078 15.8004 3.71328 16.1629L11.3008 23.7504Z" fill="white"/>
</g>
</svg>
