<svg width="24" height="24" viewBox="0 0 24 24" fill="none" xmlns="http://www.w3.org/2000/svg">
<g id="All in one icon/attatchment">
<path id="Union" fill-rule="evenodd" clip-rule="evenodd" d="M17.9991 4.29853C16.815 3.17694 14.8954 3.17694 13.7113 4.29853L4.98314 12.5665C3.0569 14.3911 3.0569 17.3495 4.98314 19.1742C6.90937 20.9988 10.0324 20.9988 11.9586 19.1742L20.6868 10.9062C20.9872 10.6217 21.4743 10.6217 21.7747 10.9062C22.0751 11.1908 22.0751 11.6521 21.7747 11.9367L13.0465 20.2047C10.5195 22.5984 6.42232 22.5984 3.89528 20.2047C1.36824 17.8109 1.36824 13.9298 3.89528 11.536L12.6235 3.26803C14.4083 1.57732 17.3021 1.57732 19.0869 3.26803C20.8717 4.95875 20.8717 7.69994 19.0869 9.39065L10.3492 17.6586C9.3066 18.6462 7.61619 18.6462 6.57357 17.6586C5.53096 16.671 5.53096 15.0697 6.57357 14.082L14.6373 6.45256C14.9378 6.16816 15.4249 6.16843 15.7251 6.45316C16.0253 6.73789 16.0251 7.19926 15.7245 7.48366L7.66143 15.1125C7.21994 15.5311 7.21973 16.2097 7.66143 16.6281C8.10324 17.0466 8.81955 17.0466 9.26136 16.6281L17.9991 8.36016C19.1831 7.23857 19.1831 5.42012 17.9991 4.29853Z" fill="#374557"/>
</g>
</svg>
