<svg width="20" height="20" viewBox="0 0 20 20" fill="none" xmlns="http://www.w3.org/2000/svg">
<g id="Group 3">
<path id="Vector" d="M18.0019 9.34156H16.672V5.38042C16.672 5.01642 16.3745 4.72035 16.0089 4.72035H15.6176V3.92042C16.1442 3.78734 16.5364 3.318 16.5364 2.75613C16.5364 2.2168 15.7469 0.509736 15.5887 0.17297C15.539 0.0673237 15.4337 0 15.3179 0C15.2023 0 15.0969 0.0673236 15.0471 0.17297C14.8889 0.509736 14.0993 2.2168 14.0993 2.75613C14.0993 3.31804 14.4915 3.78738 15.0181 3.92044V4.72035H14.6269C14.2613 4.72035 13.9638 5.01642 13.9638 5.38042V9.34156H11.4924V5.55886C11.4924 5.19487 11.1949 4.89879 10.8291 4.89879H10.4381V3.92042C10.9646 3.78734 11.3568 3.318 11.3568 2.75613C11.3568 2.2168 10.5673 0.509736 10.4091 0.17297C10.3595 0.0673237 10.2541 0 10.1383 0C10.0227 0 9.91731 0.0673236 9.86754 0.17297C9.70933 0.509736 8.91971 2.2168 8.91971 2.75613C8.91971 3.31804 9.31194 3.78738 9.83856 3.92044V4.89879H9.44734C9.08173 4.89879 8.78418 5.19487 8.78418 5.55886V9.34156H6.31286V5.55886C6.31286 5.19487 6.01531 4.89879 5.64955 4.89879H5.25847V3.92042C5.78499 3.78734 6.17719 3.318 6.17719 2.75613C6.17719 2.2168 5.38771 0.509736 5.2295 0.17297C5.17988 0.0673237 5.0745 0 4.95873 0C4.8431 0 4.73772 0.0673236 4.68796 0.17297C4.52974 0.509736 3.74012 2.2168 3.74012 2.75613C3.74012 3.31804 4.13235 3.78738 4.65898 3.92044V4.89879H4.26775C3.902 4.89879 3.60444 5.19487 3.60444 5.55886V9.34156H1.99813C0.896318 9.34156 0 10.0749 0 10.9761V14.7715C0 15.2035 0.22461 15.582 0.600667 15.7941V19.697C0.600667 19.8643 0.734881 20 0.900416 20H19.3761C19.5416 20 19.6758 19.8643 19.6758 19.697V15.4466C19.8799 15.2324 20 14.9478 20 14.6407V10.9761C20 10.0749 19.1037 9.34156 18.0019 9.34156ZM14.6988 2.75613C14.6988 2.54306 14.9826 1.79421 15.3179 1.02953C15.6532 1.79406 15.9369 2.54291 15.9369 2.75613C15.9369 3.08668 15.6592 3.35568 15.3179 3.35568C14.9766 3.35568 14.6988 3.08668 14.6988 2.75613ZM9.5192 2.75613C9.5192 2.54306 9.803 1.79421 10.1383 1.02953C10.4736 1.79406 10.7573 2.54291 10.7573 2.75613C10.7573 3.08668 10.4796 3.35568 10.1383 3.35568C9.797 3.35568 9.5192 3.08668 9.5192 2.75613ZM4.33962 2.75613C4.33962 2.54306 4.62341 1.79421 4.95873 1.02953C5.29404 1.79406 5.57769 2.54291 5.57769 2.75613C5.57769 3.08668 5.30004 3.35568 4.95873 3.35568C4.61741 3.35568 4.33962 3.08668 4.33962 2.75613ZM14.5633 5.38042C14.5633 5.35068 14.5918 5.32641 14.6269 5.32641H16.0089C16.0434 5.32641 16.0725 5.35112 16.0725 5.38042V9.34156H14.5633V5.38042ZM9.38367 5.55886C9.38367 5.52956 9.4128 5.50485 9.44734 5.50485H10.8291C10.8637 5.50485 10.893 5.52956 10.893 5.55886V9.34156H9.38367V5.55886ZM4.20394 5.55886C4.20394 5.52956 4.23321 5.50485 4.26775 5.50485H5.64955C5.68409 5.50485 5.71337 5.52956 5.71337 5.55886V9.34156H4.20394V5.55886ZM0.599497 10.9761C0.599497 10.409 1.22695 9.94762 1.99813 9.94762H3.90419H6.01311H9.08392H11.1927H14.2635H16.3723H18.0019C18.7731 9.94762 19.4005 10.409 19.4005 10.9761V14.6407C19.4005 14.8577 19.283 15.0466 19.0861 15.146C18.9196 15.2305 18.6595 15.2588 18.4306 15.0852C18.2008 14.9111 17.8659 14.7112 17.3118 14.7112C16.6003 14.7112 16.2376 15.0327 15.9177 15.3165C15.6318 15.5698 15.4062 15.77 14.9233 15.77C14.4378 15.77 14.2114 15.5695 13.9245 15.3156C13.6044 15.0323 13.2418 14.7112 12.531 14.7112C11.8203 14.7112 11.4575 15.0323 11.1374 15.3156C10.8505 15.5695 10.6241 15.77 10.1386 15.77C9.65576 15.77 9.43007 15.5698 9.14422 15.3165C8.82428 15.0327 8.46159 14.7112 7.75013 14.7112C7.0394 14.7112 6.67672 15.0323 6.35662 15.3156C6.06976 15.5695 5.84333 15.77 5.35785 15.77C4.87252 15.77 4.64595 15.5695 4.35923 15.3156C4.03914 15.0323 3.67645 14.7112 2.96558 14.7112C2.33286 14.7112 1.91807 14.9689 1.54733 15.2332C1.35633 15.3695 1.11791 15.3853 0.909783 15.2764C0.715415 15.1746 0.599497 14.9858 0.599497 14.7715V10.9761ZM1.20016 19.3939V15.9505C1.44371 15.9493 1.68554 15.8763 1.89289 15.7284C2.20859 15.5035 2.50717 15.3172 2.96558 15.3172C3.45106 15.3172 3.67748 15.5177 3.96435 15.7716C4.28444 16.055 4.64712 16.3761 5.35785 16.3761C6.06873 16.3761 6.43142 16.055 6.75151 15.7716C7.03823 15.5177 7.2648 15.3172 7.75013 15.3172C8.23591 15.3172 8.46233 15.518 8.7489 15.7721C9.06826 16.0551 9.43021 16.3761 10.1386 16.3761C10.8493 16.3761 11.2122 16.055 11.5323 15.7716C11.8191 15.5177 12.0455 15.3172 12.531 15.3172C13.0164 15.3172 13.2429 15.5177 13.5297 15.7716C13.8497 16.055 14.2124 16.3761 14.9233 16.3761C15.6317 16.3761 15.9936 16.0551 16.313 15.7721C16.5996 15.518 16.826 15.3172 17.3118 15.3172C17.6857 15.3172 17.8977 15.4389 18.0711 15.5703C18.365 15.7928 18.7306 15.8659 19.0763 15.7863V19.3939H1.20016Z" fill="#374557"/>
<path id="Vector_2" d="M16.1549 11.5732C16.1768 11.5736 16.6958 11.5896 16.9406 12.1183C16.9915 12.2284 17.0995 12.2929 17.2122 12.2929C17.2548 12.2929 17.298 12.2837 17.3391 12.2643C17.489 12.1935 17.5537 12.013 17.4836 11.8614C17.0743 10.9774 16.1949 10.9671 16.1577 10.9671C15.9932 10.9671 15.861 11.1011 15.8594 11.2674C15.8579 11.4335 15.9905 11.5701 16.1549 11.5732ZM15.2397 13.9976C15.3146 13.9976 15.3896 13.9695 15.4477 13.9128C15.4515 13.909 15.8311 13.5481 16.4006 13.7604C16.5556 13.818 16.7283 13.7379 16.7856 13.5808C16.8428 13.4238 16.7633 13.2496 16.6079 13.1916C15.6895 12.8497 15.0582 13.4507 15.0317 13.4763C14.9124 13.5925 14.9089 13.7844 15.0238 13.9048C15.0827 13.9665 15.1611 13.9976 15.2397 13.9976ZM12.1796 11.6939C12.1843 11.691 12.6362 11.4202 13.1439 11.7497C13.1941 11.7823 13.2502 11.7978 13.3057 11.7978C13.4043 11.7978 13.5009 11.7487 13.5582 11.6586C13.6476 11.5177 13.6073 11.3302 13.468 11.2398C12.6481 10.7076 11.8993 11.157 11.8675 11.1764C11.7261 11.2635 11.6815 11.45 11.7676 11.5929C11.8536 11.7355 12.0377 11.7809 12.1796 11.6939ZM10.9548 13.8541C10.962 13.8541 10.9693 13.8538 10.9766 13.8533C11.9592 13.7817 12.2744 12.9697 12.2873 12.9352C12.346 12.7787 12.268 12.6036 12.1131 12.5444C11.9587 12.485 11.7853 12.5641 11.7267 12.7204C11.7248 12.7253 11.5384 13.2048 10.9336 13.2487C10.7685 13.2609 10.6442 13.4059 10.6561 13.5728C10.6675 13.7323 10.7991 13.8541 10.9548 13.8541ZM8.25372 11.7188C8.27275 11.7079 8.72632 11.4565 9.22014 11.7858C9.27093 11.8199 9.3283 11.8361 9.38509 11.8361C9.48242 11.8361 9.57785 11.7883 9.63537 11.7002C9.7267 11.5606 9.68879 11.3726 9.55063 11.2804C8.73832 10.7371 7.98295 11.1764 7.95119 11.1956C7.80966 11.2801 7.76326 11.4634 7.84552 11.6072C7.92777 11.7512 8.11087 11.8005 8.25372 11.7188ZM7.066 14.1254C7.11927 14.1254 7.17313 14.1111 7.22187 14.081C8.0614 13.5627 7.95236 12.6946 7.94724 12.6579C7.92455 12.4921 7.77365 12.3741 7.60914 12.3996C7.44522 12.4225 7.33076 12.5757 7.3536 12.7414C7.35418 12.7464 7.41712 13.2504 6.90954 13.5638C6.76815 13.6511 6.72366 13.8375 6.80986 13.9803C6.86636 14.0739 6.96501 14.1254 7.066 14.1254ZM4.21253 11.4408H4.21414C4.22278 11.4408 4.74851 11.446 5.0001 11.9817C5.05133 12.0909 5.15891 12.155 5.27102 12.1549C5.3142 12.1549 5.35796 12.1455 5.39938 12.1256C5.54896 12.0538 5.61263 11.8731 5.54164 11.7219C5.12715 10.8392 4.24868 10.8363 4.21092 10.8347C4.04539 10.8356 3.91191 10.972 3.91278 11.1394C3.91366 11.3061 4.04773 11.4408 4.21253 11.4408ZM2.788 13.3088C2.8742 13.3088 2.95983 13.2714 3.0191 13.199C3.02247 13.1952 3.3572 12.7966 3.94762 12.9438C4.10701 12.9846 4.27078 12.8854 4.31074 12.7229C4.3507 12.5606 4.25293 12.3962 4.09222 12.3558C3.14146 12.1158 2.58075 12.784 2.55733 12.8126C2.45166 12.9414 2.46951 13.1325 2.597 13.2393C2.65291 13.286 2.72067 13.3088 2.788 13.3088Z" fill="#374557"/>
</g>
</svg>
