<svg width="24" height="24" viewBox="0 0 24 24" fill="none" xmlns="http://www.w3.org/2000/svg">
<g id="All in one icon/Calendar">
<path id="Union" fill-rule="evenodd" clip-rule="evenodd" d="M8 5.75C7.59 5.75 7.25 5.41 7.25 5V4.28515C4.94549 4.51256 3.79808 5.84541 3.75148 8.33997H20.2485C20.2019 5.84541 19.0545 4.51256 16.75 4.28515V5C16.75 5.41 16.41 5.75 16 5.75C15.59 5.75 15.25 5.41 15.25 5V4.25H8.75V5C8.75 5.41 8.41 5.75 8 5.75ZM8.75 2V2.75H15.25V2C15.25 1.59 15.59 1.25 16 1.25C16.41 1.25 16.75 1.59 16.75 2V2.78123C19.9362 3.05437 21.75 5.1078 21.75 8.5V17C21.75 20.65 19.65 22.75 16 22.75H8C4.35 22.75 2.25 20.65 2.25 17V8.5C2.25 5.1078 4.06383 3.05437 7.25 2.78123V2C7.25 1.59 7.59 1.25 8 1.25C8.41 1.25 8.75 1.59 8.75 2ZM3.75 17V9.83997H20.25V17C20.25 19.86 18.86 21.25 16 21.25H8C5.14 21.25 3.75 19.86 3.75 17ZM8.12 14.42C8.24 14.47 8.37 14.5 8.5 14.5C8.76 14.5 9.01999 14.39 9.20999 14.21C9.38999 14.02 9.5 13.76 9.5 13.5C9.5 13.4378 9.49212 13.3835 9.48335 13.3231L9.48001 13.3C9.47001 13.24 9.45001 13.18 9.42001 13.12C9.40001 13.06 9.36999 13 9.32999 12.94C9.30999 12.9067 9.2811 12.8734 9.25221 12.84C9.23777 12.8234 9.22333 12.8067 9.20999 12.79L9.06 12.67C9 12.63 8.94 12.6 8.88 12.58C8.82 12.55 8.76001 12.53 8.70001 12.52C8.50001 12.48 8.29999 12.5 8.12 12.58C8 12.63 7.89001 12.7 7.79001 12.79C7.61001 12.98 7.5 13.24 7.5 13.5C7.5 13.63 7.52999 13.76 7.57999 13.88C7.62999 14 7.70001 14.11 7.79001 14.21C7.89001 14.3 8 14.37 8.12 14.42ZM12 14.5C11.74 14.5 11.48 14.39 11.29 14.21L11.17 14.06C11.13 14 11.1 13.94 11.08 13.88C11.05 13.82 11.03 13.76 11.02 13.7L11.0167 13.6769C11.0079 13.6165 11 13.5622 11 13.5C11 13.37 11.03 13.24 11.08 13.12C11.13 13 11.2 12.89 11.29 12.79C11.57 12.51 12.02 12.42 12.38 12.58C12.51 12.63 12.61 12.7 12.71 12.79C12.89 12.98 13 13.24 13 13.5C13 13.5622 12.9921 13.6165 12.9833 13.6769L12.98 13.7C12.97 13.76 12.95 13.82 12.92 13.88C12.9 13.94 12.87 14 12.83 14.06L12.71 14.21C12.61 14.3 12.51 14.37 12.38 14.42C12.26 14.47 12.13 14.5 12 14.5ZM8.12 17.92C8.24 17.97 8.37 18 8.5 18C8.76 18 9.01999 17.89 9.20999 17.71C9.38999 17.52 9.5 17.26 9.5 17C9.5 16.94 9.49001 16.87 9.48001 16.81C9.47001 16.74 9.45001 16.68 9.42001 16.62C9.40001 16.56 9.36999 16.5 9.32999 16.44C9.30999 16.4067 9.2811 16.3733 9.25221 16.34C9.23777 16.3233 9.22333 16.3067 9.20999 16.29C8.92999 16.01 8.49 15.92 8.12 16.08C8 16.13 7.89001 16.2 7.79001 16.29C7.61001 16.48 7.5 16.74 7.5 17C7.5 17.13 7.52999 17.26 7.57999 17.38C7.62999 17.51 7.70001 17.61 7.79001 17.71C7.89001 17.8 8 17.87 8.12 17.92Z" fill="#374557"/>
</g>
</svg>
