<svg width="25" height="24" viewBox="0 0 25 24" fill="none" xmlns="http://www.w3.org/2000/svg">
<g id="All in one icon/Calendar">
<path id="Union" fill-rule="evenodd" clip-rule="evenodd" d="M8.5 5.75C8.09 5.75 7.75 5.41 7.75 5V4.28515C5.44549 4.51256 4.29808 5.84541 4.25148 8.33997H20.7485C20.7019 5.84541 19.5545 4.51256 17.25 4.28515V5C17.25 5.41 16.91 5.75 16.5 5.75C16.09 5.75 15.75 5.41 15.75 5V4.25H9.25V5C9.25 5.41 8.91 5.75 8.5 5.75ZM9.25 2V2.75H15.75V2C15.75 1.59 16.09 1.25 16.5 1.25C16.91 1.25 17.25 1.59 17.25 2V2.78123C20.4362 3.05437 22.25 5.1078 22.25 8.5V17C22.25 20.65 20.15 22.75 16.5 22.75H8.5C4.85 22.75 2.75 20.65 2.75 17V8.5C2.75 5.1078 4.56383 3.05437 7.75 2.78123V2C7.75 1.59 8.09 1.25 8.5 1.25C8.91 1.25 9.25 1.59 9.25 2ZM4.25 17V9.83997H20.75V17C20.75 19.86 19.36 21.25 16.5 21.25H8.5C5.64 21.25 4.25 19.86 4.25 17ZM8.62 14.42C8.74 14.47 8.87 14.5 9 14.5C9.26 14.5 9.51999 14.39 9.70999 14.21C9.88999 14.02 10 13.76 10 13.5C10 13.4378 9.99212 13.3835 9.98335 13.3231L9.98001 13.3C9.97001 13.24 9.95001 13.18 9.92001 13.12C9.90001 13.06 9.86999 13 9.82999 12.94C9.80999 12.9067 9.7811 12.8734 9.75221 12.84C9.73777 12.8234 9.72333 12.8067 9.70999 12.79L9.56 12.67C9.5 12.63 9.44 12.6 9.38 12.58C9.32 12.55 9.26001 12.53 9.20001 12.52C9.00001 12.48 8.79999 12.5 8.62 12.58C8.5 12.63 8.39001 12.7 8.29001 12.79C8.11001 12.98 8 13.24 8 13.5C8 13.63 8.02999 13.76 8.07999 13.88C8.12999 14 8.20001 14.11 8.29001 14.21C8.39001 14.3 8.5 14.37 8.62 14.42ZM12.5 14.5C12.24 14.5 11.98 14.39 11.79 14.21L11.67 14.06C11.63 14 11.6 13.94 11.58 13.88C11.55 13.82 11.53 13.76 11.52 13.7L11.5167 13.6769C11.5079 13.6165 11.5 13.5622 11.5 13.5C11.5 13.37 11.53 13.24 11.58 13.12C11.63 13 11.7 12.89 11.79 12.79C12.07 12.51 12.52 12.42 12.88 12.58C13.01 12.63 13.11 12.7 13.21 12.79C13.39 12.98 13.5 13.24 13.5 13.5C13.5 13.5622 13.4921 13.6165 13.4833 13.6769L13.48 13.7C13.47 13.76 13.45 13.82 13.42 13.88C13.4 13.94 13.37 14 13.33 14.06L13.21 14.21C13.11 14.3 13.01 14.37 12.88 14.42C12.76 14.47 12.63 14.5 12.5 14.5ZM8.62 17.92C8.74 17.97 8.87 18 9 18C9.26 18 9.51999 17.89 9.70999 17.71C9.88999 17.52 10 17.26 10 17C10 16.94 9.99001 16.87 9.98001 16.81C9.97001 16.74 9.95001 16.68 9.92001 16.62C9.90001 16.56 9.86999 16.5 9.82999 16.44C9.80999 16.4067 9.7811 16.3733 9.75221 16.34C9.73777 16.3233 9.72333 16.3067 9.70999 16.29C9.42999 16.01 8.99 15.92 8.62 16.08C8.5 16.13 8.39001 16.2 8.29001 16.29C8.11001 16.48 8 16.74 8 17C8 17.13 8.02999 17.26 8.07999 17.38C8.12999 17.51 8.20001 17.61 8.29001 17.71C8.39001 17.8 8.5 17.87 8.62 17.92Z" fill="#374557"/>
</g>
</svg>
