<svg width="32" height="33" viewBox="0 0 32 33" fill="none" xmlns="http://www.w3.org/2000/svg">
<g id="All in one icon/Calendar">
<path id="Union" fill-rule="evenodd" clip-rule="evenodd" d="M10.6667 8.16663C10.12 8.16663 9.66667 7.71329 9.66667 7.16663V6.21349C6.59398 6.51671 5.0641 8.29383 5.00197 11.6199H26.998C26.9359 8.29383 25.406 6.51671 22.3333 6.21349V7.16663C22.3333 7.71329 21.88 8.16663 21.3333 8.16663C20.7867 8.16663 20.3333 7.71329 20.3333 7.16663V6.16663H11.6667V7.16663C11.6667 7.71329 11.2133 8.16663 10.6667 8.16663ZM11.6667 3.16663V4.16663H20.3333V3.16663C20.3333 2.61996 20.7867 2.16663 21.3333 2.16663C21.88 2.16663 22.3333 2.61996 22.3333 3.16663V4.20827C26.5816 4.57246 29 7.31036 29 11.8333V23.1666C29 28.0333 26.2 30.8333 21.3333 30.8333H10.6667C5.8 30.8333 3 28.0333 3 23.1666V11.8333C3 7.31036 5.41844 4.57246 9.66667 4.20827V3.16663C9.66667 2.61996 10.12 2.16663 10.6667 2.16663C11.2133 2.16663 11.6667 2.61996 11.6667 3.16663ZM5 23.1666V13.6199H27V23.1666C27 26.98 25.1467 28.8333 21.3333 28.8333H10.6667C6.85333 28.8333 5 26.98 5 23.1666ZM10.8267 19.7267C10.9867 19.7933 11.16 19.8333 11.3333 19.8333C11.68 19.8333 12.0267 19.6866 12.28 19.4466C12.52 19.1933 12.6667 18.8466 12.6667 18.5C12.6667 18.4171 12.6562 18.3447 12.6445 18.2641L12.64 18.2333C12.6267 18.1533 12.6 18.0733 12.56 17.9933C12.5334 17.9133 12.4933 17.8333 12.44 17.7533C12.4133 17.7089 12.3748 17.6644 12.3363 17.62L12.3363 17.62C12.317 17.5978 12.2978 17.5755 12.28 17.5533L12.08 17.3933C12 17.34 11.92 17.3 11.84 17.2733C11.76 17.2333 11.68 17.2066 11.6 17.1933C11.3334 17.14 11.0667 17.1666 10.8267 17.2733C10.6667 17.34 10.52 17.4333 10.3867 17.5533C10.1467 17.8067 10 18.1533 10 18.5C10 18.6733 10.04 18.8466 10.1066 19.0066C10.1733 19.1666 10.2667 19.3133 10.3867 19.4466C10.52 19.5666 10.6667 19.66 10.8267 19.7267ZM16 19.8333C15.6533 19.8333 15.3067 19.6866 15.0533 19.4466L14.8934 19.2466C14.84 19.1666 14.8 19.0866 14.7733 19.0066C14.7333 18.9266 14.7067 18.8466 14.6933 18.7666L14.6889 18.7358C14.6772 18.6553 14.6667 18.5829 14.6667 18.5C14.6667 18.3266 14.7066 18.1533 14.7733 17.9933C14.84 17.8333 14.9333 17.6866 15.0533 17.5533C15.4267 17.18 16.0267 17.0599 16.5067 17.2733C16.68 17.3399 16.8133 17.4333 16.9467 17.5533C17.1867 17.8066 17.3333 18.1533 17.3333 18.5C17.3333 18.5829 17.3228 18.6553 17.3111 18.7358L17.3067 18.7666C17.2933 18.8466 17.2667 18.9266 17.2267 19.0066C17.2 19.0866 17.16 19.1666 17.1066 19.2466L16.9467 19.4466C16.8133 19.5666 16.68 19.66 16.5067 19.7266C16.3467 19.7933 16.1733 19.8333 16 19.8333ZM10.8267 24.3933C10.9867 24.46 11.16 24.5 11.3333 24.5C11.68 24.5 12.0267 24.3533 12.28 24.1133C12.52 23.8599 12.6667 23.5133 12.6667 23.1666C12.6667 23.0866 12.6533 22.9933 12.64 22.9133C12.6267 22.82 12.6 22.7399 12.56 22.6599C12.5334 22.5799 12.4933 22.5 12.44 22.42C12.4133 22.3755 12.3748 22.3311 12.3363 22.2866C12.317 22.2644 12.2978 22.2422 12.28 22.22C11.9067 21.8466 11.32 21.7266 10.8267 21.9399C10.6667 22.0066 10.52 22.1 10.3867 22.22C10.1467 22.4733 10 22.82 10 23.1666C10 23.34 10.04 23.5133 10.1066 23.6733C10.1733 23.8466 10.2667 23.9799 10.3867 24.1133C10.52 24.2333 10.6667 24.3266 10.8267 24.3933Z" fill="#374557"/>
</g>
</svg>
