<svg width="24" height="25" viewBox="0 0 24 25" fill="none" xmlns="http://www.w3.org/2000/svg">
<g id="All in one icon/clock">
<path id="Union" fill-rule="evenodd" clip-rule="evenodd" d="M1.25 12.5C1.25 18.43 6.07 23.25 12 23.25C17.93 23.25 22.75 18.43 22.75 12.5C22.75 6.57 17.93 1.75 12 1.75C6.07 1.75 1.25 6.57 1.25 12.5ZM2.75 12.5C2.75 7.4 6.9 3.25 12 3.25C17.1 3.25 21.25 7.4 21.25 12.5C21.25 17.6 17.1 21.75 12 21.75C6.9 21.75 2.75 17.6 2.75 12.5ZM15.3296 16.3198C15.4496 16.3998 15.5796 16.4298 15.7096 16.4298C15.9596 16.4298 16.2096 16.2998 16.3596 16.0598C16.5696 15.6998 16.4596 15.2398 16.0996 15.0298L12.9996 13.1798C12.6896 12.9998 12.3896 12.4698 12.3896 12.1098V8.00977C12.3896 7.59977 12.0496 7.25977 11.6396 7.25977C11.2296 7.25977 10.8896 7.59977 10.8896 8.00977V12.1098C10.8896 12.9998 11.4596 14.0098 12.2296 14.4698L15.3296 16.3198Z" fill="#374557"/>
</g>
</svg>
