<svg width="20" height="20" viewBox="0 0 20 20" fill="none" xmlns="http://www.w3.org/2000/svg">
<g id="All in one icon/Delete">
<path id="Union" fill-rule="evenodd" clip-rule="evenodd" d="M11.4607 2.73196V3.28939H8.04045V2.73196C8.04045 2.39737 8.30069 2.13713 8.63528 2.13713H10.8659C11.2005 2.13713 11.4607 2.39737 11.4607 2.73196ZM6.99951 2.73196V3.28939H2.5V4.40468H3.65618L4.65667 17.2681C4.73102 18.1604 5.51172 18.9039 6.40396 18.9039H13.0957C13.988 18.9039 14.7687 18.1975 14.843 17.2681L15.8435 4.40468H16.9988V3.28939H12.5016V2.73196C12.5016 1.83972 11.7581 1.09619 10.8659 1.09619H8.63528C7.74304 1.09619 6.99951 1.83972 6.99951 2.73196ZM14.7224 4.40468H4.77725L5.77196 17.1938C5.80914 17.5284 6.10655 17.7886 6.40396 17.7886H13.0957C13.4303 17.7886 13.7277 17.4912 13.7277 17.1938L14.7224 4.40468ZM8.07737 6.63493H6.96208V15.5573H8.07737V6.63493ZM10.3072 6.63493H9.19189V15.5573H10.3072V6.63493ZM11.4225 6.63493H12.5378V15.5573H11.4225V6.63493Z" fill="#B02A37"/>
</g>
</svg>
