<svg width="24" height="24" viewBox="0 0 24 24" fill="none" xmlns="http://www.w3.org/2000/svg">
<g id="Design">
<path id="Vector" d="M6.95961 19.2005C8.81529 19.2005 10.3196 17.6961 10.3196 15.8405C10.3196 13.9848 8.81529 12.4805 6.95961 12.4805C5.10393 12.4805 3.59961 13.9848 3.59961 15.8405C3.59961 17.6961 5.10393 19.2005 6.95961 19.2005Z" stroke="#374557" stroke-miterlimit="10"/>
<path id="Vector_2" d="M18.5996 10.1996H13.1996C12.8396 10.1996 12.5996 9.95961 12.5996 9.59961V4.19961C12.5996 3.83961 12.8396 3.59961 13.1996 3.59961H18.5996C18.9596 3.59961 19.1996 3.83961 19.1996 4.19961V9.59961C19.1996 9.95961 18.9596 10.1996 18.5996 10.1996Z" stroke="#374557" stroke-miterlimit="10"/>
<path id="Vector_3" d="M18.5991 19.1991C18.4791 19.1991 18.3591 19.1991 18.2391 19.0791L12.7191 13.5591C12.4791 13.3191 12.4791 12.9591 12.7191 12.7191C12.9591 12.4791 13.3191 12.4791 13.5591 12.7191L19.0791 18.2391C19.3191 18.4791 19.3191 18.8391 19.0791 19.0791C18.9591 19.1991 18.8391 19.1991 18.5991 19.1991Z" fill="#374557"/>
<path id="Vector_4" d="M13.0799 19.1991C13.1999 19.1991 13.3199 19.1991 13.4399 19.0791L18.9599 13.5591C19.1999 13.3191 19.1999 12.9591 18.9599 12.7191C18.7199 12.4791 18.3599 12.4791 18.1199 12.7191L12.5999 18.2391C12.3599 18.4791 12.3599 18.8391 12.5999 19.0791C12.8399 19.1991 12.9599 19.1991 13.0799 19.1991Z" fill="#374557"/>
<path id="Vector_5" d="M9.72089 10.1995H4.20089C3.72089 10.1995 3.48089 9.83945 3.60089 9.47945L6.36089 3.95945C6.60089 3.59945 7.20089 3.59945 7.32089 3.95945L10.0809 9.47945C10.3209 9.83945 10.0809 10.1995 9.72089 10.1995Z" stroke="#374557" stroke-miterlimit="10"/>
</g>
</svg>
