<svg width="24" height="24" viewBox="0 0 24 24" fill="none" xmlns="http://www.w3.org/2000/svg">
<path d="M11.0002 7.0001H19.0002C19.5529 7.0001 20.0002 6.5523 20.0002 6.0001C20.0002 5.4479 19.5529 5.0001 19.0002 5.0001H11.0002C10.4475 5.0001 10.0002 5.4479 10.0002 6.0001C10.0002 6.5523 10.4475 7.0001 11.0002 7.0001ZM11.0002 13.0001H19.0002C19.5529 13.0001 20.0002 12.5523 20.0002 12.0001C20.0002 11.4479 19.5529 11.0001 19.0002 11.0001H11.0002C10.4475 11.0001 10.0002 11.4479 10.0002 12.0001C10.0002 12.5523 10.4475 13.0001 11.0002 13.0001ZM11.0002 19.0001H19.0002C19.5529 19.0001 20.0002 18.5523 20.0002 18.0001C20.0002 17.4479 19.5529 17.0001 19.0002 17.0001H11.0002C10.4475 17.0001 10.0002 17.4479 10.0002 18.0001C10.0002 18.5523 10.4475 19.0001 11.0002 19.0001ZM4.22678 18.6939L5.22678 19.6939C5.42208 19.8892 5.67798 19.9869 5.93378 19.9869C6.18958 19.9869 6.44548 19.8892 6.64078 19.6939L8.64078 17.6939C9.03138 17.3033 9.03138 16.6705 8.64078 16.2798C8.25018 15.8891 7.61738 15.8892 7.22668 16.2798L5.93368 17.5728L5.64068 17.2798C5.25008 16.8892 4.61728 16.8892 4.22658 17.2798C3.83588 17.6704 3.83608 18.3033 4.22678 18.6939ZM4.22678 12.6939L5.22678 13.6939C5.42208 13.8892 5.67798 13.9869 5.93378 13.9869C6.18958 13.9869 6.44548 13.8892 6.64078 13.6939L8.64078 11.6939C9.03138 11.3033 9.03138 10.6705 8.64078 10.2798C8.25018 9.8891 7.61738 9.8892 7.22668 10.2798L5.93368 11.5728L5.64068 11.2798C5.25008 10.8892 4.61728 10.8892 4.22658 11.2798C3.83588 11.6704 3.83608 12.3033 4.22678 12.6939ZM5.22678 7.6939C5.42208 7.8892 5.67798 7.9869 5.93378 7.9869C6.18958 7.9869 6.44548 7.8892 6.64078 7.6939L8.64078 5.6939C9.03138 5.3033 9.03138 4.6705 8.64078 4.2798C8.25018 3.8891 7.61738 3.8892 7.22668 4.2798L5.93368 5.5728L5.64068 5.2798C5.25008 4.8892 4.61728 4.8892 4.22658 5.2798C3.83588 5.6704 3.83598 6.3032 4.22658 6.6939L5.22678 7.6939Z" fill="#374557"/>
</svg>
