<svg width="20" height="20" viewBox="0 0 20 20" fill="none" xmlns="http://www.w3.org/2000/svg">
<g id="All in one icon/Home">
<path id="Union" fill-rule="evenodd" clip-rule="evenodd" d="M5.17496 18.9584H14.825C17.1083 18.9584 18.9583 17.1001 18.9583 14.8251V8.75839C18.9583 7.55006 18.1833 6.06673 17.1916 5.37506L12.0416 1.76673C10.6416 0.783393 8.48329 0.833393 7.13329 1.88339L2.64163 5.38339C1.74163 6.08339 1.04163 7.50839 1.04163 8.64173V14.8167C1.04163 17.1001 2.89163 18.9584 5.17496 18.9584ZM3.40829 6.36673L7.89996 2.86673C8.80829 2.15839 10.375 2.12506 11.325 2.79173L16.475 6.40006C17.1333 6.85006 17.7083 7.95839 17.7083 8.75839V14.8251C17.7083 16.4167 16.4166 17.7084 14.825 17.7084H13.5857V13.0371C13.5857 11.8866 12.6529 10.9538 11.5023 10.9538H8.49768C7.34709 10.9538 6.41435 11.8865 6.41435 13.0371V17.7084H5.17496C3.58329 17.7084 2.29163 16.4084 2.29163 14.8167V8.64173C2.29163 7.89173 2.81663 6.83339 3.40829 6.36673ZM7.66598 17.7084V13.4538C7.66598 12.7635 8.22562 12.2038 8.91598 12.2038H11.0839C11.7743 12.2038 12.3339 12.7635 12.3339 13.4538V17.7084H7.66598Z" fill="#374557"/>
</g>
</svg>
