<svg width="16" height="16" viewBox="0 0 12 13" fill="none" xmlns="http://www.w3.org/2000/svg">
<path d="M9.04509 5.10875C9.25884 4.895 9.37509 4.61375 9.37509 4.31375V2.75C9.37509 2.13125 8.86884 1.625 8.25009 1.625H3.75009C3.13134 1.625 2.62509 2.13125 2.62509 2.75V4.3175C2.62509 4.6175 2.74134 4.89875 2.95134 5.10875L4.07634 6.23375C4.14759 6.305 4.18509 6.39875 4.18509 6.5C4.18509 6.60125 4.14759 6.695 4.07634 6.76625L2.94759 7.89125C2.73759 8.10125 2.62134 8.3825 2.62134 8.6825V10.25C2.62134 10.8687 3.12759 11.375 3.74634 11.375H8.24634C8.86509 11.375 9.37134 10.8687 9.37134 10.25V8.68625C9.37134 8.38625 9.25509 8.10125 9.04134 7.89125L7.91634 6.76625C7.77009 6.62 7.77009 6.38375 7.91634 6.2375L9.04134 5.1125L9.04509 5.10875ZM7.39134 7.295L8.51634 8.42C8.58759 8.49125 8.62509 8.585 8.62509 8.68625V10.25C8.62509 10.4563 8.45634 10.625 8.25009 10.625H3.75009C3.54384 10.625 3.37509 10.4563 3.37509 10.25V8.6825C3.37509 8.58125 3.41259 8.4875 3.48384 8.42L4.60884 7.295C4.82259 7.08125 4.93884 6.8 4.93884 6.5C4.93884 6.2 4.82259 5.915 4.60884 5.705L3.48384 4.58C3.41259 4.50875 3.37509 4.415 3.37509 4.3175V2.75C3.37509 2.54375 3.54384 2.375 3.75009 2.375H8.25009C8.45634 2.375 8.62509 2.54375 8.62509 2.75V4.31375C8.62509 4.415 8.58759 4.50875 8.51634 4.58L7.39134 5.705C6.95259 6.14375 6.95259 6.85625 7.39134 7.295Z" fill="#FFC107"/>
<path d="M4.5 9.5C4.5 9.70625 4.66875 9.875 4.875 9.875H7.09125C7.2975 9.875 7.46625 9.70625 7.46625 9.5C7.46625 9.29375 7.2975 9.125 7.09125 9.125H4.875C4.66875 9.125 4.5 9.29375 4.5 9.5Z" fill="#FFC107"/>
</svg>
