<svg width="24" height="24" viewBox="0 0 24 24" fill="none" xmlns="http://www.w3.org/2000/svg">
<path d="M20.1601 9.11979V20.6398C20.1601 20.7671 20.1095 20.8892 20.0195 20.9792C19.9295 21.0692 19.8074 21.1198 19.6801 21.1198H16.8001C16.6728 21.1198 16.5507 21.0692 16.4607 20.9792C16.3707 20.8892 16.3201 20.7671 16.3201 20.6398V9.11979C16.3201 8.99248 16.3707 8.87039 16.4607 8.78037C16.5507 8.69036 16.6728 8.63979 16.8001 8.63979H19.6801C19.8074 8.63979 19.9295 8.69036 20.0195 8.78037C20.1095 8.87039 20.1601 8.99248 20.1601 9.11979ZM13.4401 12.4798H10.5601C10.4328 12.4798 10.3107 12.5304 10.2207 12.6204C10.1307 12.7104 10.0801 12.8325 10.0801 12.9598V20.6398C10.0801 20.7671 10.1307 20.8892 10.2207 20.9792C10.3107 21.0692 10.4328 21.1198 10.5601 21.1198H13.4401C13.5674 21.1198 13.6895 21.0692 13.7795 20.9792C13.8695 20.8892 13.9201 20.7671 13.9201 20.6398V12.9598C13.9201 12.8325 13.8695 12.7104 13.7795 12.6204C13.6895 12.5304 13.5674 12.4798 13.4401 12.4798ZM7.20009 16.3198H4.32009C4.19278 16.3198 4.07069 16.3704 3.98068 16.4604C3.89066 16.5504 3.84009 16.6725 3.84009 16.7998V20.6398C3.84009 20.7671 3.89066 20.8892 3.98068 20.9792C4.07069 21.0692 4.19278 21.1198 4.32009 21.1198H7.20009C7.32739 21.1198 7.44948 21.0692 7.5395 20.9792C7.62952 20.8892 7.68009 20.7671 7.68009 20.6398V16.7998C7.68009 16.6725 7.62952 16.5504 7.5395 16.4604C7.44948 16.3704 7.32739 16.3198 7.20009 16.3198ZM16.5601 6.20139L16.3201 3.32139C16.3255 3.28961 16.3255 3.25716 16.3201 3.22539C16.3201 3.22539 16.3201 3.22539 16.3201 3.17739L16.2529 3.10059H16.1857H15.9745L13.1425 3.60939C13.08 3.61983 13.0201 3.64257 12.9664 3.67627C12.9127 3.70997 12.8662 3.75398 12.8296 3.80575C12.793 3.85752 12.7671 3.91602 12.7532 3.97789C12.7393 4.03975 12.7379 4.10375 12.7489 4.16619C12.7711 4.27716 12.831 4.37702 12.9185 4.44878C13.006 4.52054 13.1157 4.55976 13.2289 4.55979H13.3057L14.9665 4.26219C13.902 5.56493 12.5744 6.62825 11.0706 7.38262C9.56688 8.13698 7.92081 8.56537 6.24009 8.63979C6.11278 8.63979 5.99069 8.69036 5.90068 8.78037C5.81066 8.87039 5.76009 8.99248 5.76009 9.11979C5.76009 9.24709 5.81066 9.36918 5.90068 9.4592C5.99069 9.54921 6.11278 9.59979 6.24009 9.59979C8.04209 9.48707 9.79895 8.98913 11.3921 8.13955C12.9853 7.28998 14.3776 6.10855 15.4753 4.67499L15.6097 6.27819C15.6192 6.39708 15.6727 6.50817 15.7596 6.58981C15.8466 6.67145 15.9608 6.71778 16.0801 6.71979H16.1281C16.2538 6.70761 16.3697 6.64635 16.4506 6.54931C16.5314 6.45227 16.5708 6.32726 16.5601 6.20139Z" fill="#374557"/>
</svg>
