<svg width="24" height="24" viewBox="0 0 24 24" fill="none" xmlns="http://www.w3.org/2000/svg">
<g id="All in one icon/Link">
<path id="Union" d="M19.7746 10.7029L16.8706 13.6069C16.6786 13.7989 16.3906 13.7989 16.1986 13.6069C16.0066 13.4149 16.0066 13.1269 16.1986 12.9349L19.1026 10.0309C20.5186 8.61491 20.5186 6.31091 19.1026 4.89491C18.4066 4.19891 17.5186 3.83891 16.5346 3.83891C15.5746 3.83891 14.6626 4.22291 13.9666 4.89491L11.0626 7.79891C9.64663 9.21491 9.64663 11.5189 11.0626 12.9349C11.3986 13.2709 11.8066 13.5589 12.2626 13.7269C12.5026 13.8229 12.6226 14.1109 12.5266 14.3509C12.3106 14.8549 11.7586 14.5669 11.9026 14.6149C11.3266 14.3749 10.8226 14.0389 10.3906 13.6069C8.59063 11.8309 8.59063 8.90291 10.3906 7.12691L13.2946 4.22291C14.1586 3.35891 15.3106 2.87891 16.5346 2.87891C17.7586 2.87891 18.9106 3.35891 19.7746 4.22291C21.5746 5.99891 21.5746 8.92691 19.7746 10.7029ZM12.0946 9.38291C11.8546 9.28691 11.5666 9.40691 11.4706 9.64691C11.3746 9.88691 11.4946 10.1749 11.7346 10.2709C12.1906 10.4629 12.5986 10.7269 12.9346 11.0629C14.3506 12.4789 14.3506 14.7829 12.9346 16.1989L10.0306 19.1029C9.33463 19.7989 8.44663 20.1589 7.46263 20.1589C6.50263 20.1589 5.59063 19.7749 4.89463 19.1029C3.47862 17.6869 3.47862 15.3829 4.89463 13.9669L7.79863 11.0629C7.99063 10.8709 7.99063 10.5829 7.79863 10.3909C7.60663 10.1989 7.31863 10.1989 7.12663 10.3909L4.22263 13.2949C2.44662 15.0709 2.44662 17.9989 4.22263 19.7749C5.08663 20.6389 6.23863 21.1189 7.46263 21.1189C8.68663 21.1189 9.83863 20.6389 10.7026 19.7749L13.6066 16.8709C15.4066 15.0949 15.4066 12.1669 13.6066 10.3909C13.1746 9.95891 12.6706 9.62291 12.0946 9.38291Z" fill="#374557" stroke="#374557"/>
</g>
</svg>
