<svg width="20" height="20" viewBox="0 0 20 20" fill="none" xmlns="http://www.w3.org/2000/svg">
<g id="All in one icon/more_Vertical" opacity="0.5">
<path id="Union" d="M11.6667 4.99996C11.6667 5.92043 10.9205 6.66663 10 6.66663C9.07953 6.66663 8.33334 5.92043 8.33334 4.99996C8.33334 4.07948 9.07953 3.33329 10 3.33329C10.442 3.33329 10.866 3.50889 11.1785 3.82145C11.4911 4.13401 11.6667 4.55793 11.6667 4.99996ZM11.6667 9.99996C11.6667 10.9204 10.9205 11.6666 10 11.6666C9.07953 11.6666 8.33334 10.9204 8.33334 9.99996C8.33334 9.07948 9.07953 8.33329 10 8.33329C10.442 8.33329 10.866 8.50889 11.1785 8.82145C11.4911 9.13401 11.6667 9.55793 11.6667 9.99996ZM11.6667 15C11.6667 15.9204 10.9205 16.6666 10 16.6666C9.07953 16.6666 8.33334 15.9204 8.33334 15C8.33334 14.0795 9.07953 13.3333 10 13.3333C10.442 13.3333 10.866 13.5089 11.1785 13.8214C11.4911 14.134 11.6667 14.5579 11.6667 15Z" fill="#374557"/>
</g>
</svg>
