<svg width="16" height="16" viewBox="0 0 12 13" fill="none" xmlns="http://www.w3.org/2000/svg">
<g clip-path="url(#clip0_1102_6505)">
<path d="M4.34467 10.6249H2.25C2.15054 10.6249 2.05516 10.5854 1.98484 10.5151C1.91451 10.4448 1.875 10.3494 1.875 10.2499V8.15527C1.875 8.10603 1.8847 8.05726 1.90355 8.01177C1.92239 7.96627 1.95001 7.92493 1.98484 7.89011L7.60984 2.26511C7.68016 2.19478 7.77554 2.15527 7.875 2.15527C7.97446 2.15527 8.06984 2.19478 8.14016 2.26511L10.2348 4.35978C10.3052 4.4301 10.3447 4.52549 10.3447 4.62494C10.3447 4.7244 10.3052 4.81978 10.2348 4.89011L4.60984 10.5151C4.57501 10.5499 4.53367 10.5776 4.48818 10.5964C4.44268 10.6152 4.39392 10.6249 4.34467 10.6249Z" stroke="#17A2B8" stroke-linecap="round" stroke-linejoin="round"/>
<path d="M6.375 3.5L9 6.125" stroke="#17A2B8" stroke-linecap="round" stroke-linejoin="round"/>
<path d="M4.47611 10.6011L1.89893 8.02393" stroke="#17A2B8" stroke-linecap="round" stroke-linejoin="round"/>
</g>
<defs>
<clipPath id="clip0_1102_6505">
<rect y="0.5" width="12" height="12" rx="6" fill="white"/>
</clipPath>
</defs>
</svg>
