<svg width="81" height="80" viewBox="0 0 81 80" fill="none" xmlns="http://www.w3.org/2000/svg">
<g id="Group 10">
<g id="Union">
<path d="M33.3732 59.0759C33.3732 54.4332 34.8564 49.0168 37.2047 44.761C38.8742 41.7316 40.6715 39.7251 42.3715 37.8274C43.5661 36.4937 44.7127 35.2138 45.7329 33.6703C49.9352 27.2222 50.6767 18.0658 48.0812 11.1019C45.3621 4.00893 39.0587 -0.246831 31.7665 0.0110933C24.4743 0.140056 18.4181 4.91166 16.0697 12.0046C13.3506 19.8713 14.5866 29.1566 20.5192 35.0889C22.9911 37.5391 25.3395 41.408 23.9799 45.019C23.0025 48.0785 19.7349 49.6445 17.0278 50.9419C16.6542 51.1209 16.2909 51.295 15.9461 51.4671C9.39553 54.4332 1.60895 58.56 0.249391 66.5557C-1.11017 73.1328 3.21571 79.9678 10.1371 79.9678H38.4407C39.8003 79.9678 40.6654 78.2913 39.8003 77.1306C35.598 72.1011 33.3732 65.6529 33.3732 59.0759Z" fill="#0AA2C0"/>
<path d="M62.5494 56.4508H70.7508V60.5497H62.5494V68.7512H58.4504V60.5497H50.249V56.4508H58.4504V48.2493H62.5494V56.4508Z" fill="#0AA2C0"/>
<path fill-rule="evenodd" clip-rule="evenodd" d="M60.5 38C55.0628 38 49.8492 40.1595 46.0035 44.0035C42.1596 47.8491 40 53.0628 40 58.5C40 63.9372 42.1595 69.1508 46.0035 72.9965C49.8491 76.8404 55.0628 79 60.5 79C65.9372 79 71.1508 76.8405 74.9965 72.9965C78.8404 69.1509 81 63.9372 81 58.5C81 53.0628 78.8405 47.8492 74.9965 44.0035C71.1509 40.1596 65.9372 38 60.5 38ZM60.5 74.9011C56.1512 74.9011 51.9788 73.1731 48.9037 70.0963C45.8268 67.0212 44.0989 62.849 44.0989 58.5C44.0989 54.151 45.8269 49.9788 48.9037 46.9037C51.9788 43.8268 56.151 42.0989 60.5 42.0989C64.849 42.0989 69.0212 43.8269 72.0963 46.9037C75.1732 49.9788 76.9011 54.151 76.9011 58.5C76.8958 62.8488 75.1661 67.0177 72.091 70.091C69.0176 73.1661 64.849 74.8957 60.5 74.9011Z" fill="#0AA2C0"/>
</g>
</g>
</svg>
