<svg width="6" height="10" viewBox="0 0 6 10" fill="none" xmlns="http://www.w3.org/2000/svg">
<path d="M2.26705 6.93466V6.82386C2.26989 6.30966 2.31818 5.90057 2.41193 5.59659C2.50852 5.29261 2.64489 5.0483 2.82102 4.86364C2.99716 4.67614 3.21165 4.50426 3.46449 4.34801C3.63778 4.24006 3.79261 4.12216 3.92898 3.99432C4.06818 3.86364 4.17756 3.71875 4.2571 3.55966C4.33665 3.39773 4.37642 3.21733 4.37642 3.01847C4.37642 2.79403 4.32386 2.59943 4.21875 2.43466C4.11364 2.26989 3.97159 2.14205 3.79261 2.05114C3.61648 1.96023 3.41903 1.91477 3.20028 1.91477C2.99858 1.91477 2.80682 1.95881 2.625 2.04688C2.44602 2.1321 2.29688 2.26278 2.17756 2.43892C2.06108 2.61222 1.99574 2.83239 1.98153 3.09943H0.464489C0.478693 2.55966 0.609375 2.10795 0.856534 1.74432C1.10653 1.38068 1.43608 1.10795 1.84517 0.926136C2.2571 0.744318 2.71165 0.653409 3.20881 0.653409C3.75142 0.653409 4.22869 0.748579 4.64062 0.93892C5.0554 1.12926 5.37784 1.40057 5.60795 1.75284C5.84091 2.10227 5.95739 2.51705 5.95739 2.99716C5.95739 3.32102 5.90483 3.6108 5.79972 3.86648C5.69744 4.12216 5.55114 4.34943 5.3608 4.5483C5.17045 4.74716 4.9446 4.92472 4.68324 5.08097C4.45313 5.22301 4.2642 5.37074 4.11648 5.52415C3.97159 5.67756 3.86364 5.85795 3.79261 6.06534C3.72443 6.26989 3.68892 6.52273 3.68608 6.82386V6.93466H2.26705ZM3.00852 9.59375C2.75284 9.59375 2.53267 9.50284 2.34801 9.32102C2.16335 9.1392 2.07102 8.91761 2.07102 8.65625C2.07102 8.40057 2.16335 8.18182 2.34801 8C2.53267 7.81818 2.75284 7.72727 3.00852 7.72727C3.26136 7.72727 3.48011 7.81818 3.66477 8C3.85227 8.18182 3.94602 8.40057 3.94602 8.65625C3.94602 8.82955 3.90199 8.98722 3.81392 9.12926C3.72869 9.27131 3.61506 9.38494 3.47301 9.47017C3.33381 9.55256 3.17898 9.59375 3.00852 9.59375Z" fill="#9F7200"/>
</svg>
