<svg width="20" height="20" viewBox="0 0 20 20" fill="none" xmlns="http://www.w3.org/2000/svg">
<g id="All in one icon/reload">
<path id="Union" d="M3.04844 13.9205C3.4926 14.091 3.99085 13.8692 4.16127 13.4251C4.36135 12.904 4.50677 12.3767 4.65335 11.8496C4.78519 11.3485 4.92835 10.9431 5.1036 10.5124C5.46227 9.67721 5.8971 8.89387 6.47094 8.21462C7.02027 7.51712 7.68777 6.92021 8.42902 6.39737C8.7471 6.16362 9.08477 5.96996 9.44319 5.78029L9.27377 6.25721C9.15835 6.58404 9.25177 6.96346 9.5356 7.19537C9.89735 7.49096 10.4302 7.43729 10.7257 7.07554L12.7774 4.56437L12.7998 4.53746C12.8857 4.43154 12.9545 4.30871 13.0007 4.17179C13.2083 3.55562 12.8771 2.88779 12.261 2.68021L9.58227 1.77754C9.2671 1.67179 8.90477 1.75704 8.67185 2.02262C8.36244 2.37554 8.39769 2.91246 8.7506 3.22187L9.02669 3.46396C8.38827 3.56387 7.7351 3.73862 7.13127 4.03346C6.54435 4.27337 6.02452 4.64171 5.50702 5.00946C5.02194 5.41721 4.55044 5.85079 4.15769 6.35287C3.36202 7.34654 2.79602 8.52387 2.53894 9.75762C2.46735 10.0633 2.42952 10.3766 2.39377 10.686C2.38477 10.9899 2.3576 11.3315 2.37069 11.596C2.39794 12.1424 2.4241 12.6886 2.50485 13.241C2.5491 13.5383 2.74785 13.8051 3.04844 13.9205ZM11.5704 13.6021C11.2524 13.8359 10.9148 14.0295 10.5563 14.2192L10.7258 13.7422C10.8412 13.4154 10.7478 13.036 10.464 12.804C10.1023 12.5085 9.56944 12.5621 9.27385 12.9239L7.2221 15.4351L7.19977 15.4619C7.11385 15.5679 7.04502 15.6906 6.99894 15.8275C6.79127 16.4437 7.12252 17.1115 7.7386 17.3192L10.4174 18.2219C10.7325 18.3277 11.0949 18.2425 11.3278 17.9768C11.6372 17.6239 11.6019 17.087 11.249 16.7775L10.9729 16.5355C11.6114 16.4355 12.2645 16.2608 12.8684 15.966C13.4553 15.726 13.9751 15.3577 14.4926 14.99C14.9778 14.5822 15.4492 14.1486 15.842 13.6465C16.6377 12.6529 17.2037 11.4755 17.4608 10.2419C17.5324 9.93621 17.5702 9.62279 17.6059 9.31354C17.6149 9.00962 17.642 8.66804 17.629 8.40354C17.6018 7.85712 17.5756 7.31079 17.4948 6.75846C17.4506 6.46121 17.2518 6.19437 16.9512 6.07896C16.5071 5.90837 16.0089 6.13029 15.8384 6.57437C15.6383 7.09554 15.4929 7.62279 15.3463 8.14987C15.2145 8.65104 15.0713 9.05637 14.896 9.48712C14.5374 10.3223 14.1025 11.1057 13.5286 11.7849C12.9792 12.4824 12.3118 13.0792 11.5704 13.6021Z" fill="#0AA2C0"/>
</g>
</svg>
