<svg width="24" height="24" viewBox="0 0 24 24" fill="none" xmlns="http://www.w3.org/2000/svg">
<path d="M19.584 11.8553C19.584 11.9826 19.5334 12.1047 19.4434 12.1947C19.3534 12.2847 19.2313 12.3353 19.104 12.3353H10.8365C10.7092 12.3353 10.5871 12.2847 10.4971 12.1947C10.4071 12.1047 10.3565 11.9826 10.3565 11.8553C10.3565 11.728 10.4071 11.6059 10.4971 11.5158C10.5871 11.4258 10.7092 11.3753 10.8365 11.3753H19.104C19.2313 11.3753 19.3534 11.4258 19.4434 11.5158C19.5334 11.6059 19.584 11.728 19.584 11.8553ZM10.8365 6.52822H19.104C19.2313 6.52822 19.3534 6.47765 19.4434 6.38763C19.5334 6.29761 19.584 6.17552 19.584 6.04822C19.584 5.92091 19.5334 5.79882 19.4434 5.70881C19.3534 5.61879 19.2313 5.56822 19.104 5.56822H10.8365C10.7092 5.56822 10.5871 5.61879 10.4971 5.70881C10.4071 5.79882 10.3565 5.92091 10.3565 6.04822C10.3565 6.17552 10.4071 6.29761 10.4971 6.38763C10.5871 6.47765 10.7092 6.52822 10.8365 6.52822ZM19.104 17.1842H10.8365C10.7092 17.1842 10.5871 17.2348 10.4971 17.3248C10.4071 17.4148 10.3565 17.5369 10.3565 17.6642C10.3565 17.7915 10.4071 17.9136 10.4971 18.0036C10.5871 18.0936 10.7092 18.1442 10.8365 18.1442H19.104C19.2313 18.1442 19.3534 18.0936 19.4434 18.0036C19.5334 17.9136 19.584 17.7915 19.584 17.6642C19.584 17.5369 19.5334 17.4148 19.4434 17.3248C19.3534 17.2348 19.2313 17.1842 19.104 17.1842ZM6.57602 9.69622C6.14881 9.69622 5.73119 9.8229 5.37598 10.0602C5.02077 10.2976 4.74392 10.6349 4.58044 11.0296C4.41695 11.4243 4.37418 11.8586 4.45752 12.2776C4.54086 12.6966 4.74658 13.0815 5.04867 13.3836C5.35075 13.6856 5.73562 13.8914 6.15462 13.9747C6.57362 14.0581 7.00792 14.0153 7.40261 13.8518C7.7973 13.6883 8.13465 13.4115 8.37199 13.0562C8.60934 12.701 8.73602 12.2834 8.73602 11.8562C8.73525 11.2836 8.50744 10.7346 8.10253 10.3297C7.69761 9.9248 7.14865 9.69698 6.57602 9.69622ZM8.05442 4.34902L6.08642 6.67126L5.28002 5.61526C5.2422 5.56483 5.19481 5.52235 5.14057 5.49023C5.08633 5.45811 5.0263 5.437 4.9639 5.42808C4.9015 5.41917 4.83795 5.42263 4.77689 5.43828C4.71583 5.45392 4.65844 5.48144 4.60802 5.51926C4.50765 5.59671 4.44146 5.71026 4.42353 5.83576C4.4056 5.96126 4.43735 6.0888 4.51202 6.19126L5.68322 7.72726C5.72775 7.78473 5.78437 7.83172 5.84906 7.8649C5.91376 7.89807 5.98496 7.91663 6.05762 7.91926H6.06722C6.13663 7.91703 6.20484 7.90054 6.2676 7.87082C6.33036 7.84109 6.38633 7.79876 6.43202 7.74646L8.78402 4.96246C8.84927 4.86426 8.8761 4.74548 8.85939 4.62877C8.84268 4.51206 8.7836 4.40558 8.69342 4.32964C8.60324 4.2537 8.48826 4.2136 8.37041 4.217C8.25255 4.22039 8.14008 4.26705 8.05442 4.34806V4.34902ZM6.57602 15.5033C6.14885 15.5033 5.73127 15.6299 5.37608 15.8672C5.0209 16.1045 4.74404 16.4418 4.58053 16.8364C4.41702 17.2311 4.37418 17.6653 4.45745 18.0843C4.54072 18.5033 4.74634 18.8881 5.04833 19.1903C5.35031 19.4924 5.7351 19.6982 6.15403 19.7816C6.57297 19.8651 7.00724 19.8225 7.40195 19.6591C7.79665 19.4958 8.13407 19.2191 8.37152 18.864C8.60898 18.5089 8.73583 18.0914 8.73602 17.6642C8.73551 17.0914 8.5078 16.5422 8.10286 16.1371C7.69792 15.732 7.14882 15.504 6.57602 15.5033Z" fill="#374557"/>
</svg>
