<svg width="25" height="24" viewBox="0 0 25 24" fill="none" xmlns="http://www.w3.org/2000/svg">
<g id="All in one icon/Upload">
<path id="Union" fill-rule="evenodd" clip-rule="evenodd" d="M9.5 22.75H15.5C20.93 22.75 23.25 20.43 23.25 15V9C23.25 3.57 20.93 1.25 15.5 1.25H10.5C10.3186 1.25 10.1508 1.31658 10.0202 1.42635C10.003 1.44028 9.98621 1.455 9.97 1.47048L1.97 9.47048C1.91797 9.52251 1.87452 9.58191 1.84043 9.64609C1.78285 9.75189 1.75 9.87256 1.75 10V15C1.75 20.43 4.07 22.75 9.5 22.75ZM3.25 10.7505V15C3.25 19.61 4.89 21.25 9.5 21.25H15.5C20.11 21.25 21.75 19.61 21.75 15V9C21.75 4.39 20.11 2.75 15.5 2.75H11.25V6.00048C11.25 9.42048 9.92 10.7505 6.5 10.7505H3.25ZM16.2486 17.0005C16.2486 17.4105 15.9086 17.7505 15.4986 17.7505C15.0886 17.7505 14.7486 17.4105 14.7486 17.0005V12.8104L14.0286 13.5304C13.8786 13.6804 13.6886 13.7504 13.4986 13.7504C13.3086 13.7504 13.1186 13.6804 12.9686 13.5304C12.6786 13.2404 12.6786 12.7604 12.9686 12.4704L14.9326 10.5064C15.0037 10.4245 15.0931 10.3582 15.1965 10.3154C15.2062 10.3112 15.2159 10.3072 15.2257 10.3034C15.3815 10.2414 15.5514 10.237 15.7069 10.2819C15.8252 10.3155 15.9365 10.3783 16.0286 10.4704L16.0336 10.4755L18.0286 12.4705C18.3186 12.7605 18.3186 13.2405 18.0286 13.5305C17.7386 13.8205 17.2586 13.8205 16.9686 13.5305L16.2486 12.8105V17.0005ZM9.75 6.00048V3.81048L4.31 9.25048H6.5C9.08 9.25048 9.75 8.58048 9.75 6.00048Z" fill="#374557"/>
</g>
</svg>
